<?xml version="1.0" standalone="no"?>
<!DOCTYPE svg PUBLIC "-//W3C//DTD SVG 20010904//EN"
 "http://www.w3.org/TR/2001/REC-SVG-20010904/DTD/svg10.dtd">
<svg version="1.0" xmlns="http://www.w3.org/2000/svg"
 width="1024.000000pt" height="1024.000000pt" viewBox="0 0 1024.000000 1024.000000"
 preserveAspectRatio="xMidYMid meet">

<g transform="translate(0.000000,1024.000000) scale(0.100000,-0.100000)"
fill="#000000" stroke="none">
<path d="M0 5120 l0 -5120 5120 0 5120 0 0 5120 0 5120 -5120 0 -5120 0 0
-5120z m5743 3883 c-13 -2 -23 -8 -23 -13 0 -16 31 -20 53 -7 19 12 41 15 50
7 1 -1 29 -3 62 -5 75 -4 185 -22 194 -30 3 -4 -11 -4 -33 0 -31 6 -38 5 -34
-6 3 -8 18 -14 34 -15 16 0 78 -1 138 -2 88 -2 107 -5 103 -16 -6 -14 26 -25
87 -28 25 -1 23 -2 -14 -8 -37 -6 -39 -7 -14 -8 65 -4 94 -14 94 -33 0 -25 19
-24 28 1 7 20 9 20 32 -7 14 -15 24 -31 22 -35 -1 -5 25 -8 58 -8 57 0 81 -13
43 -23 -10 -3 8 -5 40 -6 31 0 57 3 57 9 0 5 7 7 15 4 8 -4 13 -9 10 -14 -8
-12 21 -44 34 -36 6 4 9 11 7 15 -6 9 93 -5 102 -14 3 -3 -19 -6 -49 -7 -45
-1 -48 -2 -14 -5 43 -4 87 -22 80 -33 -2 -3 9 -5 24 -2 17 2 34 -3 45 -13 10
-11 25 -15 39 -11 17 4 26 -2 39 -24 12 -21 25 -30 43 -30 14 0 25 5 25 10 0
6 5 10 11 10 8 0 7 -5 -1 -15 -14 -17 -16 -16 25 -34 17 -7 42 -20 58 -28 15
-8 36 -11 47 -8 12 4 20 2 20 -5 0 -6 5 -8 12 -4 6 4 8 3 5 -3 -4 -6 0 -16 8
-23 8 -7 12 -17 9 -22 -4 -6 3 -5 15 1 12 7 21 8 21 2 0 -10 68 -55 85 -56 27
-3 56 -18 65 -36 6 -10 17 -19 24 -19 24 0 116 -52 116 -65 0 -8 8 -11 20 -8
11 3 20 0 20 -6 0 -6 -4 -11 -10 -11 -5 0 -10 -5 -10 -11 0 -5 5 -7 10 -4 6 3
17 -1 26 -10 9 -9 22 -14 29 -11 7 2 25 -9 41 -25 15 -16 34 -29 41 -29 7 0
18 -9 25 -20 7 -11 21 -20 30 -20 10 0 18 -6 18 -14 0 -8 11 -17 24 -20 13 -3
29 -18 36 -36 7 -16 16 -28 19 -25 4 2 21 -9 38 -24 17 -15 39 -31 48 -35 10
-3 15 -12 11 -21 -3 -8 -1 -15 4 -15 5 0 11 8 13 18 4 14 5 14 6 -3 1 -11 13
-33 27 -50 14 -16 22 -24 19 -17 -6 11 -3 12 14 3 11 -7 21 -16 21 -21 0 -6 6
-10 14 -10 8 0 18 -5 21 -10 4 -6 3 -10 -2 -9 -20 3 -25 -2 -13 -16 7 -8 23
-15 36 -15 20 0 24 -5 24 -30 0 -23 5 -30 19 -30 10 0 29 -16 42 -35 16 -24
30 -34 42 -31 12 3 17 -1 15 -11 -2 -9 3 -18 11 -21 9 -3 11 0 6 9 -5 8 -4 11
1 6 9 -9 10 -13 13 -42 0 -8 10 -24 20 -34 11 -11 28 -35 37 -53 9 -18 30 -45
45 -59 16 -15 29 -34 29 -42 0 -8 9 -26 20 -40 11 -14 20 -30 20 -36 0 -6 7
-8 15 -5 8 4 16 1 16 -5 2 -11 5 -26 9 -38 1 -5 1 -12 0 -18 -1 -5 2 -7 6 -3
8 9 54 -49 54 -68 0 -7 11 -25 24 -41 12 -15 21 -34 19 -40 -3 -7 0 -13 5 -13
6 0 24 -25 40 -55 17 -30 26 -52 21 -49 -15 9 -10 -23 6 -36 8 -7 15 -19 15
-27 0 -8 4 -12 9 -8 5 3 12 1 16 -5 3 -5 1 -10 -4 -10 -6 0 -11 -4 -11 -10 0
-5 6 -7 14 -4 17 6 25 -6 28 -40 1 -14 6 -26 10 -26 4 0 8 -8 8 -19 0 -10 7
-24 15 -31 9 -7 13 -21 10 -31 -3 -9 -1 -20 5 -24 5 -3 10 -17 10 -30 0 -13 4
-25 8 -27 4 -1 15 -19 24 -38 12 -25 14 -37 6 -42 -9 -5 -9 -13 -1 -30 7 -13
12 -17 12 -10 2 24 21 12 21 -13 0 -14 5 -25 12 -25 6 0 4 -7 -5 -18 -20 -21
-22 -32 -6 -32 5 0 7 5 3 11 -4 7 -1 10 7 7 8 -3 14 -13 15 -24 0 -10 6 -30
13 -42 7 -14 11 -46 9 -74 -2 -43 0 -51 15 -54 25 -3 35 -14 14 -14 -13 0 -17
-9 -16 -37 0 -32 2 -35 10 -18 8 17 9 16 6 -7 -3 -22 0 -28 15 -28 14 0 18 -5
14 -15 -3 -8 0 -15 6 -15 7 0 6 -5 -2 -15 -9 -10 -9 -15 -1 -15 20 0 12 -18
-11 -26 -22 -7 -22 -7 6 -19 l29 -12 -24 -17 c-13 -9 -18 -16 -11 -16 14 0 16
-36 2 -45 -5 -3 -9 -17 -8 -30 2 -19 7 -24 19 -20 10 3 20 1 24 -4 3 -6 0 -8
-8 -5 -8 3 -18 1 -22 -5 -3 -6 2 -11 12 -11 17 -1 17 -2 -1 -15 -17 -13 -18
-15 -3 -15 9 0 17 -5 17 -11 0 -6 -7 -9 -15 -6 -21 8 -28 -9 -11 -26 8 -8 14
-31 13 -53 0 -21 4 -48 10 -59 15 -29 24 -273 10 -302 -7 -17 -8 -27 0 -31 7
-5 7 -31 0 -82 -5 -41 -9 -87 -9 -102 1 -16 -2 -28 -7 -28 -4 0 -8 -26 -9 -57
-1 -31 -6 -61 -12 -67 -5 -5 -10 -20 -10 -32 0 -12 -7 -25 -15 -28 -11 -4 -15
-17 -14 -43 4 -73 -1 -124 -11 -118 -6 4 -9 3 -8 -2 1 -4 -2 -18 -6 -31 -5
-14 -3 -28 4 -37 10 -12 9 -15 -6 -15 -15 0 -16 -2 -5 -9 13 -8 13 -16 2 -53
-7 -24 -15 -49 -17 -57 -3 -9 -8 -10 -17 -3 -9 8 -11 -1 -8 -40 2 -40 0 -53
-14 -61 -14 -8 -15 -11 -4 -18 11 -7 10 -11 -5 -22 -13 -10 -17 -22 -14 -40 3
-17 1 -24 -7 -21 -15 6 -29 -31 -34 -83 -1 -7 -10 -13 -21 -13 -28 0 -26 -38
3 -50 12 -5 16 -9 10 -9 -23 -2 -53 -35 -53 -58 0 -13 -5 -23 -10 -23 -6 0
-10 -16 -8 -35 1 -19 -1 -37 -5 -41 -4 -4 -7 0 -7 9 0 27 -19 19 -25 -10 -4
-16 -10 -36 -16 -45 -5 -10 -9 -25 -9 -33 0 -8 -6 -15 -14 -15 -8 0 -16 -16
-20 -39 -4 -28 -12 -42 -27 -46 -14 -5 -19 -13 -16 -26 3 -11 -1 -26 -9 -33
-8 -8 -14 -19 -14 -25 0 -6 -4 -11 -9 -11 -5 0 -12 -19 -15 -42 -8 -50 -36
-88 -64 -88 -13 0 -25 -13 -37 -40 -10 -22 -24 -40 -32 -40 -7 0 -13 -9 -13
-20 0 -10 -8 -24 -18 -29 -10 -5 -24 -21 -31 -35 -8 -14 -18 -23 -22 -20 -4 2
-16 -9 -25 -26 -10 -16 -23 -30 -29 -30 -5 0 -3 -5 5 -11 12 -8 10 -9 -7 -4
-17 5 -23 2 -23 -9 0 -12 -10 -16 -39 -16 -22 0 -41 3 -44 8 -2 4 -2 1 -1 -5
4 -15 -27 -33 -55 -33 -16 0 -21 8 -24 38 -2 20 -4 -120 -5 -313 -1 -220 -6
-365 -13 -390 -13 -48 -61 -110 -98 -129 -21 -11 -113 -15 -438 -18 -258 -2
-416 -7 -422 -13 -7 -7 6 -9 37 -8 30 1 39 0 25 -5 -27 -9 -18 -28 17 -35 23
-4 22 -4 -5 -6 -21 -1 -26 -4 -16 -10 7 -5 10 -14 6 -21 -6 -9 -9 -9 -16 1 -5
8 -9 9 -9 3 0 -15 -42 -59 -57 -60 -29 -2 -32 -5 -27 -18 3 -7 -2 -16 -10 -19
-11 -5 -16 0 -16 13 0 11 -5 20 -11 20 -5 0 -8 4 -5 8 3 5 -2 9 -10 9 -10 0
-11 -4 -4 -11 5 -5 10 -13 10 -17 0 -10 -54 -6 -61 5 -10 14 -31 -4 -25 -21 5
-11 1 -14 -13 -10 -22 5 -47 -16 -37 -31 3 -6 -2 -16 -12 -23 -15 -13 -16 -12
-3 4 7 9 9 17 4 17 -14 0 -88 -60 -88 -70 0 -5 -4 -12 -9 -17 -5 -5 -6 -3 -2
5 10 16 0 15 -29 -4 -14 -9 -22 -20 -19 -25 3 -5 -2 -6 -10 -3 -16 6 -40 -28
-28 -41 4 -5 1 -5 -6 -1 -7 4 -9 13 -5 19 4 7 0 6 -10 -2 -9 -7 -15 -17 -12
-21 3 -4 -3 -7 -13 -6 -9 0 -16 -4 -15 -11 2 -8 -4 -10 -14 -6 -9 4 -14 2 -10
-3 3 -6 -3 -10 -13 -11 -27 -2 -71 -34 -63 -46 3 -6 1 -7 -5 -3 -6 4 -24 0
-39 -9 -16 -9 -20 -14 -10 -11 11 4 16 2 12 -5 -4 -6 -13 -8 -21 -5 -14 6 -53
-11 -65 -27 -3 -5 -8 -8 -10 -8 -14 5 -68 -23 -62 -32 3 -5 1 -7 -4 -4 -6 4
-62 -15 -124 -42 -493 -211 -1035 -283 -1559 -205 -362 54 -708 179 -1070 387
-170 98 -315 205 -512 380 l-65 57 -374 0 c-369 0 -375 1 -414 23 -21 12 -53
42 -70 65 l-30 44 -3 486 c-2 467 -7 533 -31 493 -5 -8 -14 -10 -22 -6 -9 6
-6 11 10 17 l22 8 -29 28 c-15 15 -27 33 -25 39 3 7 -3 9 -15 6 -20 -5 -31 18
-32 67 -1 28 -21 60 -39 60 -7 0 -9 14 -6 43 3 27 2 35 -3 23 -7 -16 -10 -17
-18 -5 -22 34 -34 63 -34 80 0 10 -6 22 -14 26 -18 11 -38 51 -31 63 6 9 -25
83 -38 88 -4 2 -4 9 0 15 4 6 0 8 -10 4 -10 -3 -17 -2 -17 2 0 5 6 11 13 14 8
2 4 16 -16 43 -15 23 -27 54 -27 71 0 18 -5 35 -10 38 -6 4 -8 15 -5 26 10 29
-4 62 -24 56 -13 -3 -16 3 -14 35 1 21 4 42 8 47 3 5 1 12 -4 15 -24 16 -55
159 -42 202 8 28 7 31 -10 27 -17 -5 -19 0 -18 43 1 27 -4 62 -10 77 -6 16 -8
33 -5 39 9 13 5 311 -4 318 -13 9 -7 60 8 70 13 8 12 10 -3 10 -15 0 -17 5
-12 29 3 16 2 32 -3 35 -5 3 -7 19 -4 35 2 17 8 28 13 25 13 -8 11 10 -3 24
-9 9 -9 12 0 12 16 0 15 19 -2 52 -13 24 -13 30 0 42 8 8 14 22 14 30 0 9 5
16 11 16 7 0 9 34 6 110 -3 62 -1 112 4 115 5 4 9 1 9 -5 0 -6 5 -8 10 -5 16
10 12 45 -6 45 -13 0 -14 3 -5 14 6 7 9 20 5 29 -3 8 -1 17 4 21 5 3 5 30 1
63 -8 58 -5 80 7 49 3 -9 15 -16 26 -16 16 0 18 3 9 14 -12 14 -11 157 0 150
4 -2 9 6 12 17 4 14 11 20 20 16 11 -4 16 5 21 33 3 21 13 40 21 44 8 3 15 13
15 21 0 9 -4 14 -8 11 -4 -2 -8 13 -7 34 0 21 2 37 5 35 3 -2 12 1 20 6 13 8
13 10 0 19 -11 7 -11 10 -2 10 7 0 10 5 7 10 -3 6 4 14 17 19 16 7 18 10 6 10
-9 1 -20 6 -24 13 -4 7 -3 8 4 4 15 -9 31 32 37 91 2 25 10 50 18 57 14 11 47
105 47 132 0 8 5 14 11 14 5 0 8 4 4 9 -3 5 -1 12 5 16 6 4 8 10 5 15 -3 5 6
20 20 34 29 29 32 46 8 46 -15 0 -16 2 -3 10 10 6 16 6 18 0 9 -24 22 -6 22
29 0 25 5 41 14 44 10 4 13 1 10 -7 -3 -8 -1 -16 3 -19 5 -3 10 8 11 24 2 19
-2 28 -8 24 -5 -3 -10 -1 -10 4 0 6 7 11 16 11 10 0 14 6 10 15 -3 8 2 19 11
23 12 7 15 18 10 46 -4 27 -2 36 8 36 7 0 16 9 20 19 3 10 15 21 25 24 11 3
20 12 20 21 0 19 -16 22 -22 4 -3 -7 -10 -8 -17 -4 -9 6 -4 13 17 23 19 9 29
20 25 29 -3 9 6 18 27 25 20 8 28 14 20 19 -9 5 -9 9 -1 14 6 4 11 16 11 27 0
11 5 17 10 14 10 -6 14 7 11 32 -1 7 8 17 19 23 11 6 18 15 15 21 -4 5 -1 9 5
9 7 0 10 7 6 15 -3 9 0 15 9 15 8 0 15 6 15 13 1 16 50 76 50 60 0 -9 14 -12
43 -12 29 2 34 3 15 6 -26 4 -31 19 -18 53 2 3 2 7 2 10 0 3 8 6 19 6 16 0 19
-5 14 -26 -4 -17 -3 -22 4 -15 5 6 12 21 14 35 7 44 25 77 61 114 20 19 36 42
36 51 0 8 6 15 14 15 8 0 19 12 24 28 9 24 10 25 11 5 1 -13 6 -23 11 -23 6 0
9 4 8 9 -2 5 12 23 29 40 22 20 31 37 27 48 -3 11 -2 14 3 8 12 -15 42 -15 37
0 -3 7 6 22 20 33 14 11 26 27 26 35 0 8 10 17 21 20 15 4 20 11 16 21 -4 9
-2 16 4 16 6 0 8 4 5 9 -3 4 6 6 19 3 18 -3 25 0 25 12 0 16 11 20 39 16 9 -1
12 4 8 14 -4 9 -1 16 6 16 8 0 6 4 -3 10 -11 7 0 10 38 10 l52 0 -5 30 c-3 17
-1 30 5 30 5 0 10 -7 10 -16 0 -20 24 -13 28 9 2 12 -4 17 -20 18 -17 1 -18 3
-5 6 9 2 17 9 17 14 0 5 4 9 10 9 5 0 7 -7 4 -15 -7 -17 21 -21 31 -5 4 6 11
7 17 4 7 -4 8 -2 4 4 -4 7 11 16 41 25 26 8 47 17 46 21 -8 19 0 26 30 26 37
0 83 32 72 50 -5 8 2 11 24 8 18 -1 38 4 50 14 10 9 27 18 37 20 10 2 21 14
24 27 6 25 30 42 30 22 0 -20 20 -12 31 12 8 18 18 23 39 22 20 -1 27 2 23 12
-7 17 13 17 21 1 3 -7 4 -4 3 7 -1 14 5 20 23 22 67 7 105 17 124 34 11 11 28
19 38 19 10 0 18 7 18 15 0 10 10 15 30 15 18 0 29 5 28 12 -2 7 8 14 22 16
14 2 30 8 37 14 8 6 19 6 32 -1 25 -14 34 -14 26 -1 -4 6 -1 17 5 26 16 18 96
54 121 54 11 0 19 7 19 15 0 8 9 15 21 15 11 0 18 -4 15 -8 -2 -4 32 -4 77 1
45 4 84 12 85 18 2 5 19 9 38 9 20 0 34 5 35 13 0 8 2 8 5 1 3 -8 16 -9 40 -4
19 4 50 7 69 5 20 -2 39 2 46 11 7 9 31 14 62 14 30 0 67 8 92 20 25 12 72 22
121 26 43 3 85 8 92 10 7 2 180 5 384 6 286 2 372 6 376 16 2 7 20 11 45 11
23 -1 32 -4 20 -6z m437 -27 c0 -3 -4 -8 -10 -11 -5 -3 -10 -1 -10 4 0 6 5 11
10 11 6 0 10 -2 10 -4z m-47 -13 c-7 -2 -21 -2 -30 0 -10 3 -4 5 12 5 17 0 24
-2 18 -5z m506 -159 c2 -2 -19 -4 -47 -4 -29 0 -52 4 -52 9 0 8 90 3 99 -5z
m-2829 -65 c0 -5 -4 -9 -8 -9 -5 0 -9 7 -9 15 0 8 4 12 9 9 4 -3 8 -9 8 -15z
m3285 -99 c3 -6 -1 -7 -9 -4 -18 7 -21 14 -7 14 6 0 13 -4 16 -10z m-3655
-110 c0 -5 -9 -10 -20 -10 -11 0 -20 5 -20 10 0 6 9 10 20 10 11 0 20 -4 20
-10z m-93 -36 c-3 -3 -12 -4 -19 -1 -8 3 -5 6 6 6 11 1 17 -2 13 -5z m4098
-44 c3 -5 -1 -10 -10 -10 -9 0 -13 5 -10 10 3 6 8 10 10 10 2 0 7 -4 10 -10z
m-4242 -30 c-3 -12 -14 -20 -27 -20 -21 1 -21 1 3 20 29 25 30 25 24 0z m64
14 c-3 -3 -12 -4 -19 -1 -8 3 -5 6 6 6 11 1 17 -2 13 -5z m-127 -51 c-8 -3
-18 -11 -22 -17 -5 -7 -8 -4 -8 7 0 11 7 17 23 16 15 0 17 -2 7 -6z m5905
-1992 c3 -5 1 -12 -5 -16 -5 -3 -10 1 -10 9 0 18 6 21 15 7z m10 -1451 c3 -5
1 -10 -4 -10 -6 0 -11 5 -11 10 0 6 2 10 4 10 3 0 8 -4 11 -10z m-855 -1570
c0 -13 -11 -13 -30 0 -12 8 -11 10 8 10 12 0 22 -4 22 -10z m-1151 -944 c0 -7
-2 -7 -5 1 -4 8 -16 5 -41 -10 -20 -12 -34 -16 -30 -10 4 6 1 14 -5 17 -7 3
-4 5 7 3 29 -2 45 11 38 31 -6 15 -4 15 15 -2 12 -11 22 -24 21 -30z m-134
-46 c-3 -5 0 -10 7 -10 8 0 6 -5 -5 -11 -24 -14 -34 -4 -17 16 14 17 25 20 15
5z"/>
<path d="M4925 8960 c-8 -13 5 -13 25 0 13 8 13 10 -2 10 -9 0 -20 -4 -23 -10z"/>
<path d="M4853 8953 c9 -2 25 -2 35 0 9 3 1 5 -18 5 -19 0 -27 -2 -17 -5z"/>
<path d="M5978 8953 c7 -3 16 -2 19 1 4 3 -2 6 -13 5 -11 0 -14 -3 -6 -6z"/>
<path d="M6203 8903 c9 -2 23 -2 30 0 6 3 -1 5 -18 5 -16 0 -22 -2 -12 -5z"/>
<path d="M4190 8820 c0 -5 5 -10 10 -10 6 0 10 5 10 10 0 6 -4 10 -10 10 -5 0
-10 -4 -10 -10z"/>
<path d="M4000 8770 c0 -5 7 -10 15 -10 8 0 15 5 15 10 0 6 -7 10 -15 10 -8 0
-15 -4 -15 -10z"/>
<path d="M6721 8734 c0 -11 3 -14 6 -6 3 7 2 16 -1 19 -3 4 -6 -2 -5 -13z"/>
<path d="M3680 8619 c0 -5 5 -7 10 -4 6 3 10 8 10 11 0 2 -4 4 -10 4 -5 0 -10
-5 -10 -11z"/>
<path d="M5850 8384 c-181 -48 -334 -173 -418 -339 -32 -65 -32 -76 -1 -187
11 -42 17 -49 44 -54 72 -13 86 -5 109 67 32 100 91 166 196 219 67 35 186 33
256 -3 167 -85 240 -334 152 -516 -33 -68 -132 -164 -192 -184 -68 -23 -173
-22 -237 2 l-51 20 6 -37 c4 -20 18 -59 31 -87 13 -27 23 -51 21 -52 -12 -13
-130 58 -140 83 -3 8 6 33 21 55 35 53 33 115 -8 205 -16 36 -29 68 -29 70 0
6 127 5 144 -2 9 -3 16 -14 16 -24 0 -19 27 -30 79 -30 44 0 105 59 115 112
19 103 -95 186 -167 121 -11 -11 -17 -26 -14 -40 4 -22 1 -23 -57 -23 -33 0
-117 3 -186 6 l-126 7 -11 60 c-14 73 -76 203 -131 277 -83 111 -222 205 -366
249 -92 28 -252 29 -360 1 -314 -80 -536 -369 -536 -696 l0 -93 -94 -30 c-155
-48 -427 -197 -599 -327 -352 -268 -684 -673 -847 -1036 -249 -551 -325 -1115
-225 -1664 36 -201 111 -448 183 -606 2 -4 -18 -9 -45 -13 -71 -10 -103 -25
-124 -59 -18 -29 -19 -60 -19 -535 0 -488 1 -505 20 -536 44 -72 30 -70 483
-73 337 -3 407 -5 407 -17 0 -41 246 -245 449 -374 109 -68 340 -188 461 -239
812 -341 1699 -281 2485 166 201 114 523 361 563 433 l17 28 425 3 425 3 38
23 c69 44 67 25 67 579 0 476 -1 499 -20 530 -26 43 -68 63 -135 63 -30 0 -55
2 -55 4 0 2 18 41 39 88 143 309 235 800 216 1153 -18 355 -75 621 -201 940
-156 394 -447 792 -784 1072 -110 91 -286 211 -375 256 l-70 35 -35 -52 c-19
-29 -52 -74 -74 -99 -42 -52 -177 -147 -206 -147 -10 0 -22 -5 -25 -10 -7 -11
6 -28 141 -182 50 -56 111 -130 136 -163 93 -123 210 -358 238 -475 7 -30 33
-116 58 -190 55 -166 62 -257 24 -356 l-23 -60 25 -88 c47 -159 33 -328 -39
-483 -45 -98 -153 -209 -246 -253 -81 -38 -107 -39 -48 -2 49 32 113 98 146
153 73 118 68 334 -11 502 l-32 67 34 0 c50 0 84 40 115 135 27 80 35 177 18
220 -6 15 -12 2 -24 -52 -9 -40 -29 -98 -46 -130 -29 -57 -66 -101 -77 -91 -3
3 -9 33 -14 67 -5 33 -21 87 -36 118 l-28 58 -6 -105 c-8 -125 -20 -173 -67
-263 -80 -152 -237 -236 -440 -237 -40 0 -73 -3 -73 -7 1 -5 5 -27 9 -50 5
-24 6 -43 2 -43 -15 0 -74 103 -92 160 -25 81 -34 218 -20 295 33 177 167 335
327 384 30 10 56 19 57 22 1 2 -27 38 -62 79 -43 49 -62 66 -57 50 4 -14 10
-40 13 -58 5 -31 4 -34 -18 -30 -55 8 -111 165 -149 420 -25 176 -53 299 -94
423 -19 55 -33 101 -31 103 1 1 22 0 46 -4 47 -7 73 -30 203 -174 51 -56 55
-60 36 -25 -13 22 -45 71 -72 109 -27 38 -52 75 -55 82 -5 13 -2 15 88 34 76
16 171 65 232 120 232 210 304 538 178 814 -79 171 -251 314 -436 361 -76 19
-261 19 -335 -1z m-754 -190 c116 -77 198 -189 238 -324 26 -87 32 -242 12
-331 -21 -96 -65 -188 -105 -222 -63 -53 -64 -38 -6 113 32 82 38 110 43 202
6 125 -7 203 -49 302 -40 93 -104 180 -191 261 -67 61 -70 65 -35 51 20 -8 62
-32 93 -52z m-264 -94 c20 -6 46 -18 58 -28 l22 -18 -76 -71 c-42 -40 -76 -77
-76 -83 0 -6 5 -20 11 -32 10 -19 9 -19 -23 -11 -61 15 -201 10 -230 -9 -75
-49 -98 -215 -43 -316 16 -30 43 -62 63 -74 29 -18 43 -20 108 -15 l73 7 32
-40 c18 -22 43 -47 57 -56 23 -15 26 -14 74 15 47 30 49 30 42 9 -3 -13 -22
-44 -40 -69 -19 -26 -34 -49 -34 -52 0 -15 49 -30 114 -36 l71 -6 -55 -33
c-72 -42 -138 -62 -230 -69 -149 -10 -282 42 -408 161 -157 149 -215 373 -151
581 10 33 26 69 34 80 17 20 17 20 10 0 -18 -56 -46 -189 -43 -208 3 -20 11
-23 77 -27 45 -3 75 -1 76 5 1 6 10 44 19 85 32 146 99 239 209 291 53 24 74
29 142 29 44 0 97 -5 117 -10z m-122 -320 c38 -74 34 -158 -9 -212 -25 -30
-37 -18 -18 19 35 69 27 160 -19 220 l-25 33 26 -12 c15 -7 35 -28 45 -48z
m-115 -6 c53 -34 58 -145 8 -184 -34 -26 -59 -25 -88 5 -41 40 -33 116 18 173
24 26 30 27 62 6z m884 -155 c6 -18 11 -58 11 -89 0 -63 -6 -70 -61 -70 -34 0
-36 11 -17 120 11 62 15 70 34 70 16 0 25 -9 33 -31z m111 -33 c20 -41 30 -72
26 -84 -10 -29 -53 -55 -82 -48 -22 6 -24 12 -24 64 0 31 -3 74 -6 95 -6 36
-6 37 24 37 28 0 34 -6 62 -64z m-152 -197 c43 -15 31 -29 -24 -29 -30 0 -44
4 -44 13 0 29 19 33 68 16z m-928 -396 c56 -19 115 -33 143 -33 l49 0 -32 -52
c-58 -99 -177 -343 -198 -408 -12 -36 -35 -130 -52 -210 -30 -150 -69 -276
-95 -317 -17 -26 -53 -31 -61 -9 -3 8 1 27 10 43 25 49 74 277 55 256 -3 -5
-14 -30 -23 -58 -33 -103 -115 -198 -243 -282 -46 -30 -85 -58 -88 -63 -2 -4
13 -20 35 -35 48 -33 81 -73 193 -234 48 -68 87 -121 87 -118 0 2 -11 39 -25
82 -42 129 -92 221 -147 270 -49 44 -49 44 -24 51 48 12 159 -1 207 -25 109
-52 211 -200 229 -333 18 -123 -26 -319 -94 -427 -33 -51 -46 -43 -46 30 l0
45 -104 11 c-124 13 -179 35 -241 98 -56 55 -85 118 -92 195 -5 53 -8 59 -32
63 -48 10 -110 82 -172 200 l-38 72 0 -55 c-1 -60 30 -146 74 -210 20 -29 60
-59 103 -76 1 -1 -24 -52 -57 -115 -121 -231 -140 -376 -65 -491 39 -61 29
-65 -38 -14 -91 70 -168 224 -188 376 -9 71 -8 99 6 170 28 147 28 151 -2 221
-39 90 -39 183 -2 255 24 46 27 62 26 140 -2 102 13 160 66 262 82 154 218
306 470 525 77 67 171 150 210 185 48 43 75 60 86 56 8 -4 58 -22 110 -41z
m1025 -413 l29 -11 -41 -24 c-35 -19 -48 -22 -80 -14 -57 13 -182 11 -238 -5
-27 -8 -74 -25 -104 -39 -59 -28 -77 -27 -61 4 20 37 95 75 205 103 35 9 259
-2 290 -14z m36 -106 c32 -16 53 -40 41 -48 -8 -5 -79 39 -107 66 -12 12 28 1
66 -18z m-601 -9 c0 -16 -35 -21 -45 -6 -4 8 9 15 38 20 4 0 7 -6 7 -14z
m-108 -57 c-14 -36 -18 -39 -20 -20 -3 19 21 62 34 62 1 0 -5 -19 -14 -42z
m74 -83 c4 -9 -7 -30 -25 -50 -45 -51 -53 -95 -40 -210 5 -53 8 -99 5 -102
-15 -16 -56 137 -56 215 0 52 20 103 54 137 28 28 54 32 62 10z m716 -40 c31
-57 34 -100 14 -213 -13 -70 -28 -103 -42 -89 -4 4 1 51 10 106 19 105 18 116
-20 195 -29 59 -29 58 -6 54 9 -2 29 -26 44 -53z m-526 -1 c-28 -24 -28 -25
-10 -46 54 -59 168 -71 246 -25 25 14 53 38 62 52 18 27 53 33 88 14 30 -16
50 -73 42 -124 -4 -32 0 -60 15 -104 40 -117 21 -262 -45 -336 -18 -21 -36
-52 -40 -69 -10 -47 -13 -48 -40 -17 -14 17 -42 40 -62 52 -20 12 -39 24 -41
25 -2 2 2 11 9 19 11 13 10 18 -6 29 -16 12 -22 11 -47 -6 -28 -20 -31 -20
-63 -4 -19 9 -44 16 -54 16 -21 0 -27 -24 -10 -35 19 -12 10 -23 -24 -29 -20
-4 -53 -24 -82 -51 -26 -25 -49 -45 -50 -45 -1 0 -8 16 -15 37 -6 20 -26 56
-45 79 -18 24 -35 53 -39 64 -4 11 -1 71 5 133 8 85 17 124 37 164 l26 51 -17
62 c-13 44 -15 65 -7 73 13 13 135 46 171 46 l25 0 -29 -25z m587 -340 c48
-48 41 -116 -19 -183 l-43 -48 -3 -123 -3 -124 -67 -48 c-38 -26 -68 -44 -68
-39 0 5 6 14 14 20 32 27 67 130 76 228 5 54 13 113 19 132 7 23 7 48 0 79
-10 47 -6 72 17 110 19 29 45 28 77 -4z m-848 -5 c16 -17 19 -36 18 -127 -1
-74 3 -115 13 -134 8 -15 14 -56 14 -92 0 -82 7 -99 71 -176 55 -66 52 -68
-16 -15 -22 18 -53 39 -70 46 l-30 14 -5 127 -5 127 -36 38 c-48 50 -59 73
-59 125 0 76 62 115 105 67z m479 -349 c26 -9 66 -63 66 -88 0 -7 -13 2 -29
20 -26 29 -35 33 -98 36 -75 4 -111 -7 -147 -47 -11 -12 -25 -21 -33 -21 -11
0 -10 6 4 31 20 34 57 64 88 72 36 9 123 7 149 -3z m610 -116 c9 -3 16 -15 16
-25 0 -15 -7 -19 -38 -19 -55 0 -137 -26 -212 -68 -77 -42 -213 -175 -272
-265 -48 -74 -42 -43 13 69 46 93 117 178 186 222 106 67 250 108 307 86z
m-1183 -50 c97 -39 191 -117 264 -219 43 -61 99 -164 93 -171 -2 -2 -24 24
-48 57 -54 74 -169 184 -250 237 -32 22 -100 57 -150 77 -87 37 -104 49 -77
58 16 5 112 -17 168 -39z m1735 -742 c42 15 42 15 34 -7 -5 -13 -3 -47 6 -86
7 -35 13 -102 14 -148 0 -166 -55 -295 -197 -461 -78 -92 -98 -110 -121 -110
-27 0 -31 6 -68 103 l-39 102 -6 -71 c-4 -39 -14 -85 -23 -103 -17 -31 -19
-32 -74 -29 -68 4 -69 8 -27 108 38 89 38 193 2 300 -43 127 -41 118 -18 91
12 -13 49 -54 83 -90 33 -36 86 -100 118 -141 87 -114 78 -113 150 -28 147
172 168 338 68 530 -18 35 -35 67 -37 72 -2 4 18 -4 44 -20 47 -27 49 -27 91
-12z m-2362 -39 c-122 -186 -103 -383 53 -540 36 -35 66 -63 67 -61 2 2 28 37
59 78 69 92 251 283 244 255 -3 -11 -20 -60 -38 -110 -27 -75 -33 -105 -33
-180 -1 -80 2 -97 28 -148 15 -32 26 -61 23 -64 -3 -3 -36 -8 -72 -11 -51 -4
-69 -2 -76 9 -4 7 -14 53 -20 101 -7 49 -16 85 -20 81 -3 -5 -16 -46 -29 -93
-12 -47 -27 -88 -34 -92 -6 -4 -24 -8 -41 -8 -26 0 -39 12 -97 89 -166 218
-216 362 -201 581 l6 85 62 0 c52 0 67 4 96 27 43 34 45 34 23 1z m1205 -162
c23 -27 60 -58 84 -69 49 -24 29 -29 -51 -11 -41 8 -57 7 -88 -6 -36 -15 -185
-47 -192 -40 -1 1 22 14 52 29 55 27 136 106 136 132 0 25 18 15 59 -35z
m-663 -22 c3 -6 -5 -3 -20 6 -14 10 -26 19 -26 22 0 7 39 -17 46 -28z m-1661
-844 c12 -34 33 -102 46 -152 13 -50 26 -90 29 -88 4 2 22 69 41 150 l34 145
41 0 41 0 43 -161 c28 -105 46 -156 51 -146 7 12 48 174 75 295 4 20 10 23 41
20 35 -3 36 -4 54 -73 10 -38 32 -110 48 -160 26 -81 30 -87 36 -60 4 17 24
89 44 160 l37 130 83 1 83 2 -5 -27 c-4 -23 -122 -442 -190 -676 l-23 -80 -94
0 -95 0 -27 85 c-15 47 -36 118 -48 159 -14 48 -25 70 -31 64 -6 -6 -25 -68
-44 -139 -50 -189 -40 -175 -137 -172 l-83 3 -62 215 c-58 200 -156 520 -170
556 -5 13 6 14 77 12 l82 -3 23 -60z m1468 -10 l77 -70 0 -245 0 -245 -84 -77
-85 -78 -187 0 -187 0 -74 78 -73 77 0 245 0 245 72 65 c39 36 81 68 92 72 12
4 100 6 196 5 l176 -2 77 -70z m677 0 l0 -64 -52 -3 -53 -3 0 -95 c-1 -52 -2
-197 -3 -322 l-2 -228 -75 0 -75 0 0 325 0 325 -60 0 -60 0 0 63 c0 35 2 66 4
68 2 2 88 3 190 1 l186 -3 0 -64z m114 67 c7 -12 -11 -184 -21 -192 -4 -4 -19
-10 -33 -13 -24 -6 -25 -4 -25 41 0 26 -3 75 -7 110 l-8 62 45 0 c24 0 46 -4
49 -8z m532 -6 c1 0 5 -29 9 -63 l7 -63 -106 0 -106 0 0 -90 0 -90 80 0 81 0
-3 -67 -3 -68 -75 -5 -75 -5 0 -90 0 -90 108 -3 108 -3 -3 -67 -3 -67 -187 -3
-188 -2 0 396 0 396 178 -7 c97 -4 178 -8 178 -9z m418 2 c2 -7 18 -78 35
-158 17 -80 53 -237 79 -350 27 -113 52 -220 55 -237 l7 -33 -70 0 c-79 0 -80
0 -101 102 l-11 48 -77 0 -78 0 -22 -75 -22 -75 -73 0 -73 0 28 113 c16 61 56
234 90 382 34 149 63 276 65 283 2 8 28 12 84 12 56 0 82 -4 84 -12z m782 6
c25 -7 37 -33 92 -188 l39 -110 12 40 c7 21 29 90 48 152 l37 112 83 0 c46 0
83 -2 83 -5 0 -7 -87 -235 -141 -369 l-39 -98 0 -159 0 -159 -79 0 -78 0 -7
163 -7 162 -89 228 c-50 125 -90 230 -90 232 0 7 111 6 136 -1z m-225 -59 c28
-30 57 -55 64 -55 12 0 29 -116 19 -132 -3 -4 -34 -8 -70 -8 -62 0 -64 1 -64
26 0 28 -62 94 -87 94 -20 0 -63 -46 -63 -67 0 -10 60 -77 140 -154 l140 -135
0 -91 0 -91 -64 -56 -63 -56 -90 0 c-87 0 -90 1 -119 31 -16 17 -46 42 -66 55
-36 23 -38 27 -38 74 l0 50 38 0 c20 0 60 -3 87 -6 42 -5 54 -11 68 -35 21
-38 52 -38 72 1 8 16 15 37 15 48 0 11 -50 61 -132 131 -73 63 -136 123 -140
135 -3 11 -6 55 -7 97 l-1 75 58 61 57 61 97 1 97 1 52 -55z m-4089 -362 c27
-5 28 -7 13 -29 -8 -13 -15 -30 -15 -39 0 -11 -6 -14 -24 -9 -13 3 -34 1 -45
-6 -19 -10 -21 -8 -21 19 0 16 -4 33 -10 36 -16 10 -12 23 11 30 11 4 26 18
32 33 l12 26 10 -28 c6 -18 18 -29 37 -33z m4931 9 c26 -3 26 -4 11 -28 -10
-15 -14 -33 -10 -49 7 -26 7 -26 -24 -10 -23 12 -35 13 -50 5 -17 -9 -20 -8
-20 13 0 12 -5 28 -11 34 -8 8 -2 20 22 45 33 33 34 33 44 13 6 -11 22 -21 38
-23z"/>
<path d="M4359 6916 c-52 -39 -150 -148 -204 -226 -31 -44 -8 -25 113 95 84
82 152 153 152 157 0 15 -18 8 -61 -26z"/>
<path d="M4483 6778 c-84 -113 -102 -139 -137 -203 l-27 -50 37 40 c42 46 180
228 207 274 15 26 16 31 3 31 -8 0 -46 -42 -83 -92z"/>
<path d="M3769 6243 c-79 -83 -120 -159 -126 -236 -3 -34 -16 -90 -29 -124
-13 -34 -27 -89 -31 -123 -5 -56 -3 -66 30 -133 20 -39 46 -83 58 -97 l20 -25
-6 49 c-4 28 -15 72 -26 98 -10 27 -19 70 -19 96 1 57 39 157 60 157 11 0 21
27 37 95 12 52 38 137 58 188 20 52 35 98 33 104 -2 5 -28 -17 -59 -49z"/>
<path d="M5362 5986 c-92 -42 -103 -53 -78 -72 11 -8 26 -14 35 -14 8 0 22 -7
31 -15 15 -14 20 -13 43 5 28 22 49 25 78 10 13 -8 19 -7 19 0 0 7 -18 19 -40
27 l-40 16 22 24 c12 12 30 23 41 23 27 0 15 24 -14 28 -13 1 -57 -13 -97 -32z"/>
<path d="M5032 5999 c-23 -9 -22 -29 2 -29 7 0 22 -10 34 -23 l22 -23 -33 4
c-23 3 -38 -2 -48 -14 -13 -16 -12 -17 16 -12 20 4 37 0 53 -13 23 -18 26 -18
56 -2 17 9 42 22 56 29 14 7 25 18 25 24 0 6 -34 25 -75 41 -84 32 -77 31
-108 18z"/>
<path d="M5664 5886 c-9 -23 0 -51 16 -51 10 0 15 10 15 29 0 32 -21 47 -31
22z"/>
<path d="M4822 5888 c-17 -17 -15 -48 3 -48 22 0 38 35 22 49 -10 8 -17 7 -25
-1z"/>
<path d="M4320 3290 c0 -132 2 -240 4 -240 10 0 82 33 86 40 3 4 4 99 2 210
l-3 201 -34 15 c-19 8 -39 14 -45 14 -6 0 -10 -82 -10 -240z"/>
<path d="M4088 3503 c-29 -3 -39 -9 -43 -26 -3 -12 -4 -105 -3 -206 l3 -184
50 -13 c28 -7 51 -13 53 -14 1 0 2 101 2 225 0 174 -3 225 -12 223 -7 -1 -30
-3 -50 -5z"/>
<path d="M6132 3322 c-17 -136 -18 -132 21 -132 l33 0 -15 109 c-9 60 -19 112
-22 115 -3 3 -11 -38 -17 -92z"/>
<path d="M2960 8229 c0 -5 5 -7 10 -4 6 3 10 8 10 11 0 2 -4 4 -10 4 -5 0 -10
-5 -10 -11z"/>
<path d="M8568 7353 c7 -3 16 -2 19 1 4 3 -2 6 -13 5 -11 0 -14 -3 -6 -6z"/>
<path d="M6366 6911 c22 -37 129 -170 123 -154 -7 22 -124 183 -132 183 -5 0
0 -13 9 -29z"/>
<path d="M6201 6550 c-1 -45 28 -161 52 -213 29 -62 104 -148 149 -170 18 -9
34 -14 37 -12 2 2 -15 26 -38 52 -63 71 -131 185 -168 282 -19 50 -32 76 -32
61z"/>
<path d="M6665 6530 c7 -59 -11 -241 -30 -306 -8 -28 -26 -67 -39 -87 -27 -39
-19 -50 12 -19 27 27 80 106 92 136 5 14 13 26 17 26 5 0 24 -23 43 -51 19
-28 36 -46 38 -39 9 26 -43 194 -89 286 -46 94 -49 97 -44 54z"/>
<path d="M1760 6226 c0 -9 5 -16 10 -16 6 0 10 4 10 9 0 6 -4 13 -10 16 -5 3
-10 -1 -10 -9z"/>
<path d="M6285 5935 c-58 -59 -116 -165 -140 -255 -25 -92 -17 -89 39 16 45
86 77 137 175 275 12 17 11 19 -4 19 -9 0 -41 -25 -70 -55z"/>
<path d="M1686 5685 c-9 -26 -7 -32 5 -12 6 10 9 21 6 23 -2 3 -7 -2 -11 -11z"/>
<path d="M1770 4584 c0 -8 5 -12 10 -9 6 3 10 10 10 16 0 5 -4 9 -10 9 -5 0
-10 -7 -10 -16z"/>
<path d="M2185 3849 c-4 -6 -5 -12 -2 -15 2 -3 7 2 10 11 7 17 1 20 -8 4z"/>
<path d="M8545 3790 c-3 -5 -1 -10 4 -10 6 0 11 5 11 10 0 6 -2 10 -4 10 -3 0
-8 -4 -11 -10z"/>
<path d="M7187 2581 c-3 -13 -1 -18 9 -14 7 2 10 11 7 19 -7 19 -10 18 -16 -5z"/>
</g>
</svg>
